<svg xmlns="http://www.w3.org/2000/svg" xmlns:xlink="http://www.w3.org/1999/xlink" width="480" zoomAndPan="magnify" viewBox="0 0 360 359.999987" height="480" preserveAspectRatio="xMidYMid meet" version="1.0"><defs><filter x="0%" y="0%" width="100%" height="100%" id="id1"><feColorMatrix values="0 0 0 0 1 0 0 0 0 1 0 0 0 0 1 0 0 0 1 0" color-interpolation-filters="sRGB"/></filter><clipPath id="id2"><path d="M 149.574219 107.113281 L 210.324219 107.113281 L 210.324219 218.113281 L 149.574219 218.113281 Z M 149.574219 107.113281 " clip-rule="nonzero"/></clipPath><mask id="id3"><g filter="url(#id1)"><rect x="-36" width="432" fill="#000000" y="-35.999999" height="431.999984" fill-opacity="0.6078"/></g></mask><clipPath id="id4"><path d="M 0.558594 1.40625 L 49.308594 1.40625 L 49.308594 30.65625 L 0.558594 30.65625 Z M 0.558594 1.40625 " clip-rule="nonzero"/></clipPath><clipPath id="id5"><rect x="0" width="51" y="0" height="31"/></clipPath><mask id="id6"><g filter="url(#id1)"><rect x="-36" width="432" fill="#000000" y="-35.999999" height="431.999984" fill-opacity="0.7098"/></g></mask><clipPath id="id7"><path d="M 2 0.238281 L 8 0.238281 L 8 19 L 2 19 Z M 2 0.238281 " clip-rule="nonzero"/></clipPath><clipPath id="id8"><rect x="0" width="10" y="0" height="23"/></clipPath></defs><g clip-path="url(#id2)"><path fill="#ffffff" d="M 209.453125 192.21875 C 209.703125 192.253906 209.867188 192.46875 209.867188 192.71875 C 209.867188 192.75 209.867188 192.765625 209.867188 192.800781 C 209.851562 192.914062 209.835938 193.015625 209.800781 193.132812 C 209.75 193.398438 209.488281 193.578125 209.222656 193.527344 C 208.957031 193.480469 208.777344 193.230469 208.828125 192.949219 C 208.84375 192.847656 208.859375 192.734375 208.875 192.632812 C 208.925781 192.367188 209.191406 192.1875 209.453125 192.21875 Z M 209.273438 189.070312 C 209.273438 189.1875 209.257812 189.285156 209.257812 189.402344 C 209.238281 189.667969 209.453125 189.914062 209.71875 189.933594 C 209.984375 189.949219 210.230469 189.734375 210.246094 189.46875 C 210.246094 189.351562 210.261719 189.234375 210.261719 189.136719 C 210.261719 189.136719 210.261719 189.121094 210.261719 189.121094 C 210.261719 188.855469 210.050781 188.640625 209.785156 188.621094 C 209.503906 188.574219 209.273438 188.789062 209.273438 189.070312 Z M 149.976562 192.519531 C 149.996094 192.632812 150.011719 192.734375 150.027344 192.847656 C 150.078125 193.113281 150.324219 193.296875 150.605469 193.265625 C 150.851562 193.230469 151.019531 193.015625 151.019531 192.765625 C 151.019531 192.734375 151.019531 192.71875 151.019531 192.683594 C 151.003906 192.585938 150.984375 192.46875 150.96875 192.367188 C 150.917969 192.105469 150.671875 191.90625 150.40625 191.953125 C 150.125 192.003906 149.929688 192.253906 149.976562 192.519531 Z M 149.613281 188.835938 C 149.613281 188.953125 149.632812 189.070312 149.632812 189.167969 C 149.648438 189.453125 149.878906 189.648438 150.144531 189.648438 C 150.40625 189.632812 150.621094 189.417969 150.621094 189.152344 C 150.621094 189.152344 150.621094 189.136719 150.621094 189.136719 C 150.621094 189.019531 150.605469 188.921875 150.605469 188.804688 C 150.589844 188.523438 150.359375 188.324219 150.09375 188.324219 C 149.828125 188.324219 149.613281 188.554688 149.613281 188.835938 Z M 206.84375 199.496094 C 206.796875 199.597656 206.761719 199.695312 206.710938 199.796875 C 206.597656 200.042969 206.710938 200.34375 206.960938 200.457031 C 207.207031 200.574219 207.503906 200.457031 207.621094 200.210938 C 207.671875 200.109375 207.71875 200.011719 207.753906 199.894531 C 207.785156 199.828125 207.800781 199.761719 207.800781 199.695312 C 207.800781 199.496094 207.6875 199.316406 207.503906 199.230469 C 207.242188 199.132812 206.960938 199.25 206.84375 199.496094 Z M 150.789062 196.148438 C 150.820312 196.265625 150.851562 196.363281 150.886719 196.480469 C 150.96875 196.746094 151.234375 196.894531 151.496094 196.8125 C 151.710938 196.746094 151.84375 196.546875 151.84375 196.332031 C 151.84375 196.28125 151.84375 196.230469 151.828125 196.179688 C 151.792969 196.082031 151.761719 195.964844 151.730469 195.867188 C 151.644531 195.601562 151.382812 195.453125 151.117188 195.535156 C 150.851562 195.601562 150.703125 195.882812 150.789062 196.148438 Z M 152.027344 199.644531 C 152.074219 199.746094 152.109375 199.84375 152.160156 199.960938 C 152.273438 200.210938 152.554688 200.324219 152.820312 200.210938 C 153 200.125 153.117188 199.945312 153.117188 199.761719 C 153.117188 199.695312 153.101562 199.628906 153.066406 199.5625 C 153.015625 199.464844 152.984375 199.363281 152.933594 199.265625 C 152.820312 199.015625 152.539062 198.898438 152.289062 199 C 152.027344 199.097656 151.910156 199.382812 152.027344 199.644531 Z M 209.304688 185.441406 L 209.304688 185.769531 C 209.304688 186.054688 209.519531 186.269531 209.800781 186.269531 C 210.082031 186.269531 210.296875 186.054688 210.296875 185.769531 L 210.296875 185.441406 C 210.296875 185.15625 210.082031 184.941406 209.800781 184.941406 C 209.519531 184.941406 209.304688 185.15625 209.304688 185.441406 Z M 208.082031 196.132812 C 208.050781 196.230469 208.015625 196.347656 207.984375 196.445312 C 207.902344 196.710938 208.050781 196.992188 208.316406 197.078125 C 208.578125 197.160156 208.859375 197.011719 208.941406 196.746094 C 208.976562 196.644531 209.007812 196.53125 209.042969 196.429688 C 209.058594 196.378906 209.058594 196.332031 209.058594 196.28125 C 209.058594 196.066406 208.925781 195.867188 208.710938 195.800781 C 208.429688 195.71875 208.148438 195.867188 208.082031 196.132812 Z M 209.304688 181.777344 L 209.304688 182.109375 C 209.304688 182.390625 209.519531 182.605469 209.800781 182.605469 C 210.082031 182.605469 210.296875 182.390625 210.296875 182.109375 L 210.296875 181.777344 C 210.296875 181.496094 210.082031 181.277344 209.800781 181.277344 C 209.519531 181.277344 209.304688 181.511719 209.304688 181.777344 Z M 149.597656 174.21875 L 149.597656 174.546875 C 149.597656 174.832031 149.8125 175.046875 150.09375 175.046875 C 150.375 175.046875 150.589844 174.832031 150.589844 174.546875 L 150.589844 174.21875 C 150.589844 173.933594 150.375 173.71875 150.09375 173.71875 C 149.8125 173.71875 149.597656 173.933594 149.597656 174.21875 Z M 209.304688 170.835938 L 209.304688 171.167969 C 209.304688 171.449219 209.519531 171.664062 209.800781 171.664062 C 210.082031 171.664062 210.296875 171.449219 210.296875 171.167969 L 210.296875 170.835938 C 210.296875 170.554688 210.082031 170.335938 209.800781 170.335938 C 209.519531 170.335938 209.304688 170.554688 209.304688 170.835938 Z M 149.597656 170.554688 L 149.597656 170.886719 C 149.597656 171.167969 149.8125 171.382812 150.09375 171.382812 C 150.375 171.382812 150.589844 171.167969 150.589844 170.886719 L 150.589844 170.554688 C 150.589844 170.273438 150.375 170.054688 150.09375 170.054688 C 149.8125 170.054688 149.597656 170.289062 149.597656 170.554688 Z M 209.304688 174.480469 L 209.304688 174.8125 C 209.304688 175.09375 209.519531 175.3125 209.800781 175.3125 C 210.082031 175.3125 210.296875 175.09375 210.296875 174.8125 L 210.296875 174.480469 C 210.296875 174.199219 210.082031 173.984375 209.800781 173.984375 C 209.519531 173.984375 209.304688 174.199219 209.304688 174.480469 Z M 149.597656 185.15625 L 149.597656 185.488281 C 149.597656 185.769531 149.8125 185.988281 150.09375 185.988281 C 150.375 185.988281 150.589844 185.769531 150.589844 185.488281 L 150.589844 185.15625 C 150.589844 184.875 150.375 184.660156 150.09375 184.660156 C 149.8125 184.660156 149.597656 184.890625 149.597656 185.15625 Z M 149.597656 181.511719 L 149.597656 181.84375 C 149.597656 182.125 149.8125 182.339844 150.09375 182.339844 C 150.375 182.339844 150.589844 182.125 150.589844 181.84375 L 150.589844 181.511719 C 150.589844 181.230469 150.375 181.011719 150.09375 181.011719 C 149.8125 181.011719 149.597656 181.246094 149.597656 181.511719 Z M 153.679688 202.960938 C 153.726562 203.0625 153.792969 203.160156 153.84375 203.261719 C 153.976562 203.492188 154.289062 203.574219 154.519531 203.425781 C 154.667969 203.328125 154.769531 203.160156 154.769531 202.996094 C 154.769531 202.910156 154.75 202.8125 154.703125 202.746094 C 154.652344 202.648438 154.585938 202.5625 154.535156 202.464844 C 154.40625 202.230469 154.089844 202.148438 153.859375 202.28125 C 153.628906 202.414062 153.546875 202.710938 153.679688 202.960938 Z M 149.597656 177.863281 L 149.597656 178.195312 C 149.597656 178.476562 149.8125 178.691406 150.09375 178.691406 C 150.375 178.691406 150.589844 178.476562 150.589844 178.195312 L 150.589844 177.863281 C 150.589844 177.582031 150.375 177.367188 150.09375 177.367188 C 149.8125 177.367188 149.597656 177.582031 149.597656 177.863281 Z M 209.304688 178.128906 L 209.304688 178.460938 C 209.304688 178.742188 209.519531 178.957031 209.800781 178.957031 C 210.082031 178.957031 210.296875 178.742188 210.296875 178.460938 L 210.296875 178.128906 C 210.296875 177.847656 210.082031 177.632812 209.800781 177.632812 C 209.519531 177.632812 209.304688 177.863281 209.304688 178.128906 Z M 176.320312 108.324219 C 176.421875 108.304688 176.535156 108.289062 176.652344 108.289062 C 176.898438 108.257812 177.097656 108.042969 177.097656 107.792969 C 177.097656 107.777344 177.097656 107.757812 177.097656 107.742188 C 177.066406 107.476562 176.816406 107.277344 176.554688 107.3125 C 176.4375 107.328125 176.320312 107.34375 176.222656 107.34375 C 175.957031 107.378906 175.761719 107.625 175.792969 107.890625 C 175.792969 108.15625 176.042969 108.355469 176.320312 108.324219 Z M 182.285156 217.566406 C 182.269531 217.285156 182.035156 217.085938 181.757812 217.101562 C 181.640625 217.101562 181.542969 217.117188 181.425781 217.117188 C 181.144531 217.136719 180.945312 217.367188 180.964844 217.632812 C 180.980469 217.914062 181.210938 218.113281 181.476562 218.097656 C 181.589844 218.097656 181.707031 218.078125 181.804688 218.078125 C 182.070312 218.0625 182.269531 217.847656 182.269531 217.582031 C 182.285156 217.582031 182.285156 217.566406 182.285156 217.566406 Z M 178.652344 217.632812 C 178.652344 217.617188 178.652344 217.617188 178.652344 217.597656 C 178.652344 217.332031 178.453125 217.117188 178.1875 217.101562 C 178.074219 217.101562 177.972656 217.085938 177.859375 217.085938 C 177.578125 217.070312 177.347656 217.265625 177.328125 217.550781 C 177.3125 217.832031 177.511719 218.0625 177.792969 218.078125 C 177.90625 218.078125 178.023438 218.097656 178.121094 218.097656 C 178.402344 218.113281 178.632812 217.898438 178.652344 217.632812 Z M 185.308594 216.652344 C 185.207031 216.671875 185.09375 216.6875 184.992188 216.703125 C 184.730469 216.753906 184.546875 217.003906 184.597656 217.285156 C 184.644531 217.550781 184.894531 217.730469 185.175781 217.683594 C 185.289062 217.664062 185.390625 217.648438 185.503906 217.617188 C 185.738281 217.566406 185.917969 217.367188 185.917969 217.136719 C 185.917969 217.101562 185.917969 217.070312 185.902344 217.050781 C 185.835938 216.785156 185.585938 216.605469 185.308594 216.652344 Z M 188.460938 215.890625 C 188.199219 215.972656 188.046875 216.257812 188.132812 216.503906 C 188.214844 216.769531 188.496094 216.917969 188.742188 216.835938 C 188.859375 216.804688 188.957031 216.769531 189.054688 216.738281 C 189.269531 216.671875 189.402344 216.472656 189.402344 216.257812 C 189.402344 216.207031 189.402344 216.15625 189.386719 216.105469 C 189.304688 215.84375 189.023438 215.691406 188.757812 215.777344 C 188.675781 215.824219 188.578125 215.859375 188.460938 215.890625 Z M 209.304688 167.171875 L 209.304688 167.503906 C 209.304688 167.785156 209.519531 168 209.800781 168 C 210.082031 168 210.296875 167.785156 210.296875 167.503906 L 210.296875 167.171875 C 210.296875 166.890625 210.082031 166.675781 209.800781 166.675781 C 209.519531 166.675781 209.304688 166.90625 209.304688 167.171875 Z M 170.226562 216.023438 C 170.144531 216.289062 170.277344 216.570312 170.542969 216.652344 C 170.640625 216.6875 170.757812 216.71875 170.855469 216.753906 C 171.121094 216.835938 171.398438 216.6875 171.484375 216.421875 C 171.5 216.371094 171.5 216.324219 171.5 216.273438 C 171.5 216.058594 171.367188 215.859375 171.152344 215.792969 C 171.054688 215.757812 170.9375 215.726562 170.839844 215.691406 C 170.589844 215.625 170.308594 215.777344 170.226562 216.023438 Z M 172.804688 108.984375 C 172.902344 108.953125 173.019531 108.9375 173.117188 108.902344 C 173.347656 108.855469 173.496094 108.636719 173.496094 108.421875 C 173.496094 108.390625 173.496094 108.339844 173.480469 108.304688 C 173.414062 108.042969 173.152344 107.875 172.886719 107.941406 C 172.769531 107.976562 172.671875 107.992188 172.554688 108.023438 C 172.292969 108.089844 172.125 108.355469 172.191406 108.621094 C 172.277344 108.886719 172.539062 109.050781 172.804688 108.984375 Z M 175.035156 217.25 C 175.035156 217.21875 175.035156 217.183594 175.035156 217.167969 C 175.035156 216.9375 174.867188 216.71875 174.621094 216.6875 C 174.523438 216.671875 174.40625 216.652344 174.308594 216.621094 C 174.042969 216.570312 173.777344 216.738281 173.730469 217.019531 C 173.679688 217.285156 173.84375 217.550781 174.125 217.597656 C 174.242188 217.617188 174.339844 217.648438 174.457031 217.664062 C 174.738281 217.699219 174.984375 217.515625 175.035156 217.25 Z M 169.699219 109.949219 C 169.898438 109.882812 170.027344 109.683594 170.027344 109.484375 C 170.027344 109.433594 170.011719 109.367188 169.996094 109.316406 C 169.898438 109.050781 169.617188 108.9375 169.351562 109.019531 C 169.253906 109.050781 169.136719 109.101562 169.039062 109.136719 C 168.789062 109.234375 168.660156 109.515625 168.757812 109.78125 C 168.855469 110.03125 169.136719 110.164062 169.402344 110.0625 C 169.5 110.015625 169.601562 109.980469 169.699219 109.949219 Z M 191.816406 214.648438 C 191.566406 214.765625 191.453125 215.046875 191.566406 215.3125 C 191.683594 215.558594 191.964844 215.675781 192.226562 215.558594 C 192.328125 215.511719 192.425781 215.460938 192.523438 215.425781 C 192.707031 215.34375 192.820312 215.164062 192.820312 214.980469 C 192.820312 214.914062 192.804688 214.847656 192.773438 214.78125 C 192.65625 214.53125 192.359375 214.417969 192.113281 214.53125 C 192.011719 214.550781 191.914062 214.597656 191.816406 214.648438 Z M 205.210938 202.695312 C 205.160156 202.796875 205.09375 202.878906 205.042969 202.976562 C 204.894531 203.210938 204.976562 203.523438 205.210938 203.65625 C 205.441406 203.808594 205.753906 203.722656 205.886719 203.492188 C 205.953125 203.390625 206.003906 203.292969 206.066406 203.195312 C 206.117188 203.109375 206.132812 203.027344 206.132812 202.945312 C 206.132812 202.777344 206.050781 202.613281 205.886719 202.515625 C 205.65625 202.382812 205.359375 202.449219 205.210938 202.695312 Z M 158.121094 208.863281 C 158.203125 208.945312 158.269531 209.027344 158.351562 209.113281 C 158.550781 209.3125 158.863281 209.3125 159.046875 209.113281 C 159.144531 209.011719 159.195312 208.878906 159.195312 208.761719 C 159.195312 208.632812 159.144531 208.515625 159.046875 208.414062 C 158.964844 208.332031 158.898438 208.265625 158.8125 208.183594 C 158.617188 207.984375 158.300781 207.984375 158.121094 208.167969 C 157.9375 208.347656 157.9375 208.664062 158.121094 208.863281 Z M 160.78125 210.667969 C 160.613281 210.886719 160.648438 211.199219 160.847656 211.367188 C 160.929688 211.433594 161.027344 211.515625 161.109375 211.582031 C 161.324219 211.746094 161.640625 211.714844 161.804688 211.5 C 161.871094 211.398438 161.902344 211.300781 161.902344 211.183594 C 161.902344 211.035156 161.835938 210.886719 161.722656 210.785156 C 161.640625 210.71875 161.554688 210.652344 161.472656 210.585938 C 161.257812 210.421875 160.945312 210.453125 160.78125 210.667969 Z M 155.726562 206.042969 C 155.792969 206.128906 155.859375 206.226562 155.925781 206.308594 C 156.089844 206.527344 156.402344 206.574219 156.617188 206.394531 C 156.75 206.292969 156.816406 206.144531 156.816406 205.996094 C 156.816406 205.894531 156.78125 205.78125 156.71875 205.695312 C 156.652344 205.613281 156.585938 205.53125 156.519531 205.429688 C 156.351562 205.214844 156.039062 205.167969 155.824219 205.332031 C 155.609375 205.515625 155.5625 205.828125 155.726562 206.042969 Z M 200.632812 208.597656 C 200.4375 208.796875 200.4375 209.113281 200.632812 209.292969 C 200.832031 209.492188 201.144531 209.492188 201.328125 209.292969 C 201.410156 209.210938 201.492188 209.128906 201.558594 209.0625 C 201.660156 208.960938 201.707031 208.847656 201.707031 208.714844 C 201.707031 208.582031 201.660156 208.464844 201.558594 208.367188 C 201.359375 208.167969 201.046875 208.183594 200.867188 208.367188 C 200.78125 208.449219 200.699219 208.515625 200.632812 208.597656 Z M 166.875 214.632812 C 166.757812 214.878906 166.859375 215.179688 167.105469 215.292969 C 167.203125 215.34375 167.304688 215.394531 167.417969 215.445312 C 167.667969 215.558594 167.964844 215.445312 168.082031 215.195312 C 168.113281 215.128906 168.128906 215.0625 168.128906 214.996094 C 168.128906 214.8125 168.015625 214.632812 167.832031 214.550781 C 167.734375 214.5 167.632812 214.464844 167.535156 214.417969 C 167.289062 214.285156 166.988281 214.382812 166.875 214.632812 Z M 197.941406 210.96875 C 197.726562 211.132812 197.695312 211.449219 197.859375 211.664062 C 198.023438 211.878906 198.339844 211.914062 198.554688 211.746094 C 198.636719 211.679688 198.734375 211.613281 198.816406 211.53125 C 198.933594 211.433594 199 211.285156 199 211.152344 C 199 211.035156 198.964844 210.933594 198.882812 210.835938 C 198.71875 210.621094 198.40625 210.585938 198.191406 210.753906 C 198.105469 210.835938 198.023438 210.902344 197.941406 210.96875 Z M 194.984375 212.992188 C 194.753906 213.125 194.671875 213.4375 194.820312 213.671875 C 194.953125 213.902344 195.265625 213.984375 195.496094 213.835938 C 195.597656 213.785156 195.695312 213.71875 195.777344 213.652344 C 195.925781 213.554688 196.007812 213.386719 196.007812 213.222656 C 196.007812 213.140625 195.992188 213.039062 195.945312 212.957031 C 195.796875 212.726562 195.496094 212.640625 195.265625 212.792969 C 195.183594 212.875 195.085938 212.941406 194.984375 212.992188 Z M 163.703125 212.839844 C 163.554688 213.074219 163.621094 213.386719 163.851562 213.519531 C 163.949219 213.585938 164.050781 213.636719 164.132812 213.703125 C 164.363281 213.851562 164.679688 213.769531 164.808594 213.539062 C 164.859375 213.453125 164.875 213.371094 164.875 213.273438 C 164.875 213.105469 164.792969 212.941406 164.644531 212.839844 C 164.546875 212.792969 164.464844 212.726562 164.363281 212.675781 C 164.148438 212.527344 163.851562 212.609375 163.703125 212.839844 Z M 203.210938 205.664062 C 203.144531 205.746094 203.078125 205.828125 203.011719 205.929688 C 202.847656 206.144531 202.878906 206.460938 203.09375 206.625 C 203.308594 206.789062 203.625 206.757812 203.789062 206.542969 C 203.855469 206.460938 203.921875 206.359375 204.003906 206.277344 C 204.070312 206.195312 204.101562 206.078125 204.101562 205.980469 C 204.101562 205.828125 204.035156 205.679688 203.90625 205.582031 C 203.691406 205.398438 203.375 205.449219 203.210938 205.664062 Z M 202.054688 118.1875 C 202.121094 118.269531 202.203125 118.351562 202.269531 118.433594 C 202.453125 118.652344 202.765625 118.667969 202.964844 118.484375 C 203.078125 118.386719 203.144531 118.253906 203.144531 118.105469 C 203.144531 117.988281 203.113281 117.871094 203.03125 117.789062 C 202.964844 117.707031 202.878906 117.621094 202.816406 117.539062 C 202.632812 117.339844 202.320312 117.308594 202.121094 117.488281 C 201.90625 117.671875 201.875 117.988281 202.054688 118.1875 Z M 204.234375 121.019531 C 204.300781 121.105469 204.351562 121.203125 204.417969 121.285156 C 204.566406 121.519531 204.878906 121.585938 205.109375 121.417969 C 205.257812 121.320312 205.324219 121.171875 205.324219 121.003906 C 205.324219 120.90625 205.292969 120.820312 205.242188 120.722656 C 205.175781 120.625 205.109375 120.539062 205.0625 120.441406 C 204.914062 120.207031 204.597656 120.160156 204.367188 120.308594 C 204.152344 120.492188 204.085938 120.804688 204.234375 121.019531 Z M 149.597656 166.90625 L 149.597656 167.238281 C 149.597656 167.519531 149.8125 167.734375 150.09375 167.734375 C 150.375 167.734375 150.589844 167.519531 150.589844 167.238281 L 150.589844 166.90625 C 150.589844 166.625 150.375 166.410156 150.09375 166.410156 C 149.8125 166.410156 149.597656 166.625 149.597656 166.90625 Z M 157.046875 117.574219 C 156.867188 117.773438 156.882812 118.085938 157.097656 118.269531 C 157.296875 118.453125 157.609375 118.433594 157.789062 118.21875 C 157.855469 118.136719 157.9375 118.054688 158.003906 117.972656 C 158.085938 117.871094 158.136719 117.753906 158.136719 117.640625 C 158.136719 117.507812 158.085938 117.375 157.972656 117.273438 C 157.773438 117.09375 157.460938 117.109375 157.277344 117.308594 C 157.195312 117.40625 157.128906 117.488281 157.046875 117.574219 Z M 153.066406 123.410156 C 153.015625 123.507812 152.96875 123.605469 152.917969 123.707031 C 152.785156 123.957031 152.886719 124.253906 153.132812 124.371094 C 153.378906 124.484375 153.679688 124.402344 153.792969 124.152344 C 153.84375 124.054688 153.890625 123.957031 153.941406 123.855469 C 153.976562 123.789062 153.992188 123.707031 153.992188 123.625 C 153.992188 123.441406 153.890625 123.277344 153.726562 123.175781 C 153.496094 123.078125 153.199219 123.160156 153.066406 123.410156 Z M 207.503906 127.402344 C 207.539062 127.503906 207.570312 127.601562 207.621094 127.71875 C 207.71875 127.984375 208 128.117188 208.25 128.015625 C 208.445312 127.949219 208.578125 127.75 208.578125 127.550781 C 208.578125 127.503906 208.5625 127.4375 208.546875 127.386719 C 208.511719 127.289062 208.464844 127.171875 208.429688 127.070312 C 208.332031 126.804688 208.050781 126.675781 207.785156 126.773438 C 207.539062 126.855469 207.40625 127.136719 207.503906 127.402344 Z M 151.546875 126.789062 C 151.515625 126.890625 151.464844 127.003906 151.429688 127.105469 C 151.332031 127.371094 151.464844 127.652344 151.730469 127.734375 C 151.992188 127.835938 152.273438 127.703125 152.355469 127.4375 C 152.390625 127.335938 152.4375 127.238281 152.472656 127.136719 C 152.488281 127.070312 152.503906 127.023438 152.503906 126.957031 C 152.503906 126.757812 152.390625 126.558594 152.191406 126.492188 C 151.925781 126.410156 151.644531 126.542969 151.546875 126.789062 Z M 206.066406 124.105469 C 206.117188 124.203125 206.167969 124.304688 206.21875 124.402344 C 206.332031 124.652344 206.628906 124.75 206.878906 124.617188 C 207.042969 124.535156 207.160156 124.351562 207.160156 124.171875 C 207.160156 124.085938 207.140625 124.023438 207.109375 123.957031 C 207.058594 123.855469 207.011719 123.757812 206.960938 123.65625 C 206.828125 123.410156 206.53125 123.308594 206.300781 123.441406 C 206.035156 123.574219 205.9375 123.871094 206.066406 124.105469 Z M 199.542969 115.632812 C 199.625 115.699219 199.710938 115.78125 199.792969 115.847656 C 199.992188 116.03125 200.304688 116.015625 200.484375 115.816406 C 200.566406 115.714844 200.617188 115.601562 200.617188 115.484375 C 200.617188 115.351562 200.566406 115.21875 200.453125 115.121094 C 200.371094 115.035156 200.289062 114.96875 200.203125 114.886719 C 200.007812 114.707031 199.691406 114.722656 199.511719 114.921875 C 199.328125 115.136719 199.347656 115.453125 199.542969 115.632812 Z M 193.484375 110.859375 C 193.351562 111.109375 193.449219 111.40625 193.679688 111.539062 C 193.78125 111.589844 193.878906 111.636719 193.960938 111.6875 C 194.210938 111.820312 194.507812 111.738281 194.640625 111.488281 C 194.671875 111.40625 194.703125 111.339844 194.703125 111.257812 C 194.703125 111.074219 194.605469 110.910156 194.441406 110.828125 C 194.339844 110.777344 194.242188 110.726562 194.144531 110.660156 C 193.914062 110.527344 193.613281 110.609375 193.484375 110.859375 Z M 190.144531 109.402344 C 190.046875 109.648438 190.179688 109.949219 190.425781 110.046875 C 190.527344 110.082031 190.625 110.128906 190.722656 110.164062 C 190.972656 110.261719 191.269531 110.148438 191.367188 109.882812 C 191.386719 109.816406 191.402344 109.765625 191.402344 109.699219 C 191.402344 109.5 191.285156 109.316406 191.085938 109.234375 C 190.988281 109.203125 190.875 109.152344 190.773438 109.117188 C 190.542969 109.019531 190.246094 109.136719 190.144531 109.402344 Z M 159.640625 114.921875 C 159.441406 115.101562 159.425781 115.417969 159.605469 115.617188 C 159.789062 115.816406 160.101562 115.832031 160.300781 115.648438 C 160.382812 115.582031 160.464844 115.5 160.546875 115.433594 C 160.664062 115.335938 160.714844 115.203125 160.714844 115.054688 C 160.714844 114.9375 160.679688 114.820312 160.582031 114.722656 C 160.398438 114.523438 160.085938 114.488281 159.886719 114.671875 C 159.804688 114.773438 159.722656 114.855469 159.640625 114.921875 Z M 183.078125 107.757812 C 183.042969 108.023438 183.242188 108.273438 183.507812 108.304688 C 183.621094 108.324219 183.722656 108.339844 183.835938 108.339844 C 184.101562 108.371094 184.367188 108.191406 184.398438 107.910156 C 184.398438 107.890625 184.398438 107.859375 184.398438 107.84375 C 184.398438 107.59375 184.21875 107.378906 183.96875 107.34375 C 183.855469 107.328125 183.753906 107.3125 183.640625 107.296875 C 183.359375 107.296875 183.109375 107.496094 183.078125 107.757812 Z M 179.394531 107.609375 C 179.394531 107.890625 179.609375 108.109375 179.890625 108.109375 L 179.957031 108.109375 C 180.070312 108.109375 180.171875 108.109375 180.285156 108.109375 C 180.566406 108.109375 180.78125 107.890625 180.78125 107.609375 C 180.78125 107.34375 180.566406 107.113281 180.285156 107.113281 C 180.171875 107.113281 180.054688 107.113281 179.957031 107.113281 L 179.890625 107.113281 C 179.609375 107.113281 179.394531 107.328125 179.394531 107.609375 Z M 186.660156 108.355469 C 186.59375 108.621094 186.761719 108.886719 187.023438 108.953125 C 187.125 108.984375 187.238281 109.003906 187.339844 109.035156 C 187.601562 109.101562 187.867188 108.953125 187.949219 108.6875 C 187.964844 108.636719 187.964844 108.605469 187.964844 108.554688 C 187.964844 108.339844 187.816406 108.140625 187.601562 108.074219 C 187.488281 108.042969 187.386719 108.023438 187.273438 107.992188 C 187.007812 107.925781 186.726562 108.089844 186.660156 108.355469 Z M 196.621094 112.714844 C 196.457031 112.949219 196.523438 113.246094 196.738281 113.414062 C 196.820312 113.480469 196.917969 113.542969 197 113.59375 C 197.214844 113.761719 197.527344 113.710938 197.695312 113.480469 C 197.761719 113.394531 197.792969 113.296875 197.792969 113.195312 C 197.792969 113.046875 197.726562 112.882812 197.578125 112.800781 C 197.480469 112.734375 197.398438 112.667969 197.296875 112.601562 C 197.082031 112.433594 196.785156 112.484375 196.621094 112.714844 Z M 162.53125 112.617188 C 162.300781 112.78125 162.25 113.082031 162.414062 113.3125 C 162.582031 113.542969 162.878906 113.59375 163.109375 113.429688 C 163.191406 113.363281 163.289062 113.296875 163.371094 113.246094 C 163.503906 113.148438 163.585938 112.996094 163.585938 112.832031 C 163.585938 112.734375 163.554688 112.632812 163.503906 112.550781 C 163.355469 112.316406 163.042969 112.269531 162.8125 112.417969 C 162.710938 112.484375 162.628906 112.550781 162.53125 112.617188 Z M 150.457031 130.335938 C 150.425781 130.453125 150.40625 130.554688 150.375 130.667969 C 150.308594 130.933594 150.472656 131.199219 150.738281 131.265625 C 151.003906 131.332031 151.265625 131.167969 151.332031 130.902344 C 151.347656 130.800781 151.382812 130.6875 151.414062 130.585938 C 151.429688 130.554688 151.429688 130.503906 151.429688 130.46875 C 151.429688 130.238281 151.28125 130.039062 151.050781 129.988281 C 150.789062 129.90625 150.523438 130.070312 150.457031 130.335938 Z M 165.667969 110.675781 C 165.421875 110.808594 165.339844 111.109375 165.46875 111.355469 C 165.601562 111.605469 165.898438 111.6875 166.148438 111.554688 C 166.246094 111.507812 166.347656 111.457031 166.429688 111.40625 C 166.59375 111.324219 166.691406 111.140625 166.691406 110.957031 C 166.691406 110.875 166.675781 110.808594 166.644531 110.726562 C 166.511719 110.476562 166.214844 110.394531 165.984375 110.511719 C 165.867188 110.578125 165.769531 110.628906 165.667969 110.675781 Z M 154.984375 120.242188 C 154.917969 120.339844 154.851562 120.425781 154.785156 120.523438 C 154.636719 120.757812 154.683594 121.054688 154.917969 121.21875 C 155.148438 121.371094 155.445312 121.320312 155.609375 121.085938 C 155.675781 121.003906 155.726562 120.90625 155.792969 120.820312 C 155.859375 120.738281 155.875 120.640625 155.875 120.539062 C 155.875 120.375 155.792969 120.226562 155.660156 120.125 C 155.445312 119.960938 155.148438 120.011719 154.984375 120.242188 Z M 209.304688 152.566406 L 209.304688 152.898438 C 209.304688 153.179688 209.519531 153.394531 209.800781 153.394531 C 210.082031 153.394531 210.296875 153.179688 210.296875 152.898438 L 210.296875 152.566406 C 210.296875 152.285156 210.082031 152.070312 209.800781 152.070312 C 209.519531 152.070312 209.304688 152.300781 209.304688 152.566406 Z M 149.597656 155.949219 L 149.597656 156.28125 C 149.597656 156.5625 149.8125 156.777344 150.09375 156.777344 C 150.375 156.777344 150.589844 156.5625 150.589844 156.28125 L 150.589844 155.949219 C 150.589844 155.667969 150.375 155.453125 150.09375 155.453125 C 149.8125 155.453125 149.597656 155.667969 149.597656 155.949219 Z M 149.597656 152.300781 L 149.597656 152.632812 C 149.597656 152.914062 149.8125 153.132812 150.09375 153.132812 C 150.375 153.132812 150.589844 152.914062 150.589844 152.632812 L 150.589844 152.300781 C 150.589844 152.019531 150.375 151.804688 150.09375 151.804688 C 149.8125 151.804688 149.597656 152.019531 149.597656 152.300781 Z M 209.304688 156.214844 L 209.304688 156.546875 C 209.304688 156.828125 209.519531 157.042969 209.800781 157.042969 C 210.082031 157.042969 210.296875 156.828125 210.296875 156.546875 L 210.296875 156.214844 C 210.296875 155.933594 210.082031 155.71875 209.800781 155.71875 C 209.519531 155.71875 209.304688 155.949219 209.304688 156.214844 Z M 149.597656 163.257812 L 149.597656 163.589844 C 149.597656 163.871094 149.8125 164.089844 150.09375 164.089844 C 150.375 164.089844 150.589844 163.871094 150.589844 163.589844 L 150.589844 163.257812 C 150.589844 162.976562 150.375 162.761719 150.09375 162.761719 C 149.8125 162.761719 149.597656 162.976562 149.597656 163.257812 Z M 209.304688 148.921875 L 209.304688 149.25 C 209.304688 149.535156 209.519531 149.75 209.800781 149.75 C 210.082031 149.75 210.296875 149.535156 210.296875 149.25 L 210.296875 148.921875 C 210.296875 148.636719 210.082031 148.421875 209.800781 148.421875 C 209.519531 148.421875 209.304688 148.636719 209.304688 148.921875 Z M 209.304688 163.523438 L 209.304688 163.855469 C 209.304688 164.136719 209.519531 164.355469 209.800781 164.355469 C 210.082031 164.355469 210.296875 164.136719 210.296875 163.855469 L 210.296875 163.523438 C 210.296875 163.242188 210.082031 163.027344 209.800781 163.027344 C 209.519531 163.027344 209.304688 163.242188 209.304688 163.523438 Z M 149.597656 159.597656 L 149.597656 159.925781 C 149.597656 160.210938 149.8125 160.425781 150.09375 160.425781 C 150.375 160.425781 150.589844 160.210938 150.589844 159.925781 L 150.589844 159.597656 C 150.589844 159.3125 150.375 159.097656 150.09375 159.097656 C 149.8125 159.097656 149.597656 159.332031 149.597656 159.597656 Z M 209.304688 159.878906 L 209.304688 160.210938 C 209.304688 160.492188 209.519531 160.707031 209.800781 160.707031 C 210.082031 160.707031 210.296875 160.492188 210.296875 160.210938 L 210.296875 159.878906 C 210.296875 159.597656 210.082031 159.378906 209.800781 159.378906 C 209.519531 159.378906 209.304688 159.597656 209.304688 159.878906 Z M 149.597656 148.636719 L 149.597656 148.96875 C 149.597656 149.25 149.8125 149.46875 150.09375 149.46875 C 150.375 149.46875 150.589844 149.25 150.589844 148.96875 L 150.589844 148.636719 C 150.589844 148.355469 150.375 148.140625 150.09375 148.140625 C 149.8125 148.140625 149.597656 148.375 149.597656 148.636719 Z M 209.125 134.367188 C 209.140625 134.480469 209.140625 134.582031 209.15625 134.695312 C 209.191406 134.960938 209.421875 135.179688 209.703125 135.144531 C 209.964844 135.113281 210.148438 134.894531 210.148438 134.648438 C 210.148438 134.632812 210.148438 134.613281 210.148438 134.597656 C 210.132812 134.480469 210.132812 134.367188 210.113281 134.265625 C 210.082031 134 209.835938 133.800781 209.570312 133.820312 C 209.289062 133.851562 209.089844 134.101562 209.125 134.367188 Z M 149.597656 137.699219 L 149.597656 138.027344 C 149.597656 138.3125 149.8125 138.527344 150.09375 138.527344 C 150.375 138.527344 150.589844 138.3125 150.589844 138.027344 L 150.589844 137.699219 C 150.589844 137.414062 150.375 137.199219 150.09375 137.199219 C 149.8125 137.199219 149.597656 137.414062 149.597656 137.699219 Z M 208.53125 130.835938 C 208.546875 130.933594 208.578125 131.050781 208.59375 131.148438 C 208.660156 131.414062 208.925781 131.582031 209.191406 131.53125 C 209.421875 131.480469 209.585938 131.28125 209.585938 131.050781 C 209.585938 131.015625 209.585938 130.984375 209.570312 130.933594 C 209.554688 130.816406 209.519531 130.71875 209.488281 130.601562 C 209.421875 130.335938 209.15625 130.171875 208.894531 130.238281 C 208.628906 130.304688 208.464844 130.570312 208.53125 130.835938 Z M 209.304688 137.960938 L 209.304688 138.292969 C 209.304688 138.578125 209.519531 138.792969 209.800781 138.792969 C 210.082031 138.792969 210.296875 138.578125 210.296875 138.292969 L 210.296875 137.960938 C 210.296875 137.679688 210.082031 137.464844 209.800781 137.464844 C 209.519531 137.464844 209.304688 137.679688 209.304688 137.960938 Z M 149.8125 133.984375 C 149.796875 134.101562 149.78125 134.199219 149.78125 134.316406 C 149.746094 134.597656 149.945312 134.828125 150.226562 134.863281 C 150.488281 134.894531 150.738281 134.695312 150.769531 134.414062 C 150.789062 134.300781 150.789062 134.199219 150.804688 134.082031 C 150.804688 134.066406 150.804688 134.050781 150.804688 134.015625 C 150.804688 133.769531 150.621094 133.554688 150.359375 133.519531 C 150.078125 133.519531 149.828125 133.71875 149.8125 133.984375 Z M 149.597656 144.992188 L 149.597656 145.324219 C 149.597656 145.605469 149.8125 145.820312 150.09375 145.820312 C 150.375 145.820312 150.589844 145.605469 150.589844 145.324219 L 150.589844 144.992188 C 150.589844 144.710938 150.375 144.496094 150.09375 144.496094 C 149.8125 144.496094 149.597656 144.726562 149.597656 144.992188 Z M 209.304688 145.257812 L 209.304688 145.589844 C 209.304688 145.871094 209.519531 146.085938 209.800781 146.085938 C 210.082031 146.085938 210.296875 145.871094 210.296875 145.589844 L 210.296875 145.257812 C 210.296875 144.976562 210.082031 144.757812 209.800781 144.757812 C 209.519531 144.757812 209.304688 144.992188 209.304688 145.257812 Z M 149.597656 141.34375 L 149.597656 141.675781 C 149.597656 141.957031 149.8125 142.171875 150.09375 142.171875 C 150.375 142.171875 150.589844 141.957031 150.589844 141.675781 L 150.589844 141.34375 C 150.589844 141.0625 150.375 140.847656 150.09375 140.847656 C 149.8125 140.847656 149.597656 141.0625 149.597656 141.34375 Z M 209.304688 141.609375 L 209.304688 141.941406 C 209.304688 142.222656 209.519531 142.4375 209.800781 142.4375 C 210.082031 142.4375 210.296875 142.222656 210.296875 141.941406 L 210.296875 141.609375 C 210.296875 141.328125 210.082031 141.113281 209.800781 141.113281 C 209.519531 141.113281 209.304688 141.34375 209.304688 141.609375 Z M 209.304688 141.609375 " fill-opacity="1" fill-rule="nonzero"/></g><g mask="url(#id3)"><g transform="matrix(1, 0, 0, 1, 155, 222)"><g clip-path="url(#id5)"><g clip-path="url(#id4)"><path fill="#ffffff" d="M 49.253906 6.507812 L 25.015625 30.648438 L 0.605469 6.34375 L 5.570312 1.398438 L 25.015625 20.765625 L 44.292969 1.566406 L 49.253906 6.507812 " fill-opacity="1" fill-rule="nonzero"/></g></g></g></g><g mask="url(#id6)"><g transform="matrix(1, 0, 0, 1, 175, 132)"><g clip-path="url(#id8)"><g clip-path="url(#id7)"><path fill="#ffffff" d="M 7.246094 2.609375 L 7.246094 16.058594 C 7.246094 16.355469 7.1875 16.640625 7.074219 16.914062 C 6.960938 17.1875 6.796875 17.429688 6.585938 17.640625 C 6.375 17.851562 6.132812 18.015625 5.855469 18.128906 C 5.582031 18.242188 5.292969 18.296875 4.996094 18.296875 C 4.699219 18.296875 4.410156 18.242188 4.136719 18.128906 C 3.859375 18.015625 3.617188 17.851562 3.40625 17.640625 C 3.195312 17.429688 3.03125 17.1875 2.917969 16.914062 C 2.804688 16.640625 2.746094 16.355469 2.746094 16.058594 L 2.746094 2.609375 C 2.746094 2.3125 2.804688 2.027344 2.917969 1.75 C 3.03125 1.476562 3.195312 1.234375 3.40625 1.023438 C 3.617188 0.816406 3.859375 0.652344 4.136719 0.539062 C 4.410156 0.425781 4.699219 0.367188 4.996094 0.367188 C 5.292969 0.367188 5.582031 0.425781 5.855469 0.539062 C 6.132812 0.652344 6.375 0.816406 6.585938 1.023438 C 6.796875 1.234375 6.960938 1.476562 7.074219 1.75 C 7.1875 2.027344 7.246094 2.3125 7.246094 2.609375 Z M 7.246094 2.609375 " fill-opacity="1" fill-rule="nonzero"/></g></g></g></g></svg>